<?xml version="1.0" encoding="UTF-8" standalone="no"?>
<!-- Generator: Adobe Illustrator 16.0.0, SVG Export Plug-In . SVG Version: 6.00 Build 0)  -->

<svg
   version="1.1"
   id="Layer_1"
   x="0px"
   y="0px"
   width="72.000008"
   height="72"
   viewBox="0 0 72.000008 72"
   enable-background="new 0 0 255 80"
   xml:space="preserve"
   sodipodi:docname="acm.svg"
   xmlns:inkscape="http://www.inkscape.org/namespaces/inkscape"
   xmlns:sodipodi="http://sodipodi.sourceforge.net/DTD/sodipodi-0.dtd"
   xmlns="http://www.w3.org/2000/svg"
   xmlns:svg="http://www.w3.org/2000/svg"><defs
   id="defs49" /><sodipodi:namedview
   id="namedview49"
   pagecolor="#ffffff"
   bordercolor="#111111"
   borderopacity="1"
   inkscape:showpageshadow="0"
   inkscape:pageopacity="0"
   inkscape:pagecheckerboard="1"
   inkscape:deskcolor="#d1d1d1" />

<g
   id="g48"
   transform="translate(-9.9999987,-4)">
		
			<linearGradient
   id="SVGID_1_"
   gradientUnits="userSpaceOnUse"
   x1="1311.9697"
   y1="395.17871"
   x2="1362.8817"
   y2="344.26669"
   gradientTransform="matrix(0.7071,0.7071,0.7071,-0.7071,-1161.1237,-644.264)">
			<stop
   offset="0"
   style="stop-color:#66B9E2"
   id="stop33" />
			<stop
   offset="0.1343"
   style="stop-color:#60B7E1"
   id="stop34" />
			<stop
   offset="0.31"
   style="stop-color:#50B0DE"
   id="stop35" />
			<stop
   offset="0.5087"
   style="stop-color:#35A4D9"
   id="stop36" />
			<stop
   offset="0.7228"
   style="stop-color:#0F95D2"
   id="stop37" />
			<stop
   offset="0.8"
   style="stop-color:#008ECF"
   id="stop38" />
		</linearGradient>
		<polygon
   fill="url(#SVGID_1_)"
   points="46,4 82,40 46,76 10,40 "
   id="polygon38"
   style="fill:url(#SVGID_1_)" />
		<circle
   fill="#fffffe"
   cx="46"
   cy="40"
   r="22.072001"
   id="circle38" />
		
			<linearGradient
   id="SVGID_2_"
   gradientUnits="userSpaceOnUse"
   x1="934"
   y1="-775.86469"
   x2="934"
   y2="-734.78198"
   gradientTransform="matrix(1,0,0,-1,-888,-716)">
			<stop
   offset="0"
   style="stop-color:#76BFE4"
   id="stop39" />
			<stop
   offset="0.1226"
   style="stop-color:#70BDE3"
   id="stop40" />
			<stop
   offset="0.283"
   style="stop-color:#60B6E0"
   id="stop41" />
			<stop
   offset="0.4644"
   style="stop-color:#45ABDB"
   id="stop42" />
			<stop
   offset="0.6598"
   style="stop-color:#1F9BD5"
   id="stop43" />
			<stop
   offset="0.8"
   style="stop-color:#008ECF"
   id="stop44" />
		</linearGradient>
		<circle
   fill="url(#SVGID_2_)"
   cx="46"
   cy="40"
   r="19.865"
   id="circle44"
   style="fill:url(#SVGID_2_)" />
		<g
   id="g47">
			<g
   id="g46">
				<path
   fill="#fffffe"
   d="m 34.434,43.867 c -0.203,0.17 -0.387,0.322 -0.547,0.457 -0.162,0.139 -0.379,0.275 -0.65,0.41 -0.266,0.129 -0.525,0.229 -0.777,0.293 -0.252,0.062 -0.604,0.1 -1.057,0.1 -0.844,0 -1.545,-0.283 -2.102,-0.852 -0.559,-0.566 -0.836,-1.281 -0.836,-2.146 0,-0.713 0.141,-1.281 0.424,-1.721 0.283,-0.438 0.691,-0.783 1.223,-1.039 0.539,-0.26 1.18,-0.441 1.928,-0.545 0.748,-0.102 1.551,-0.182 2.412,-0.238 v -0.051 c 0,-0.527 -0.195,-0.891 -0.582,-1.092 -0.389,-0.203 -0.969,-0.303 -1.746,-0.303 -0.35,0 -0.76,0.064 -1.23,0.193 -0.469,0.129 -0.928,0.293 -1.375,0.492 H 29.265 V 35.51 c 0.295,-0.086 0.771,-0.186 1.432,-0.303 0.658,-0.117 1.322,-0.176 1.992,-0.176 1.648,0 2.85,0.275 3.602,0.824 0.752,0.547 1.129,1.385 1.129,2.51 v 6.514 h -2.984 v -1.012 z m 0,-1.49 v -1.982 c -0.502,0.051 -0.906,0.096 -1.215,0.13 -0.311,0.037 -0.615,0.107 -0.912,0.218 -0.26,0.09 -0.461,0.228 -0.605,0.411 -0.143,0.183 -0.215,0.429 -0.215,0.729 0,0.447 0.121,0.752 0.359,0.922 0.238,0.166 0.592,0.246 1.061,0.246 0.258,0 0.521,-0.059 0.793,-0.176 0.269,-0.115 0.513,-0.285 0.734,-0.498 z"
   id="path44" />
				<path
   fill="#fffffe"
   d="m 43.967,45.127 c -0.791,0 -1.516,-0.1 -2.172,-0.299 -0.656,-0.195 -1.227,-0.504 -1.709,-0.92 -0.479,-0.412 -0.852,-0.932 -1.119,-1.559 -0.267,-0.627 -0.4,-1.365 -0.4,-2.22 0,-0.914 0.145,-1.691 0.436,-2.334 0.289,-0.639 0.682,-1.166 1.178,-1.582 0.477,-0.396 1.037,-0.691 1.684,-0.879 0.646,-0.189 1.318,-0.287 2.018,-0.287 0.529,0 1.059,0.062 1.588,0.186 0.529,0.119 1.061,0.316 1.596,0.582 v 2.561 H 46.68 c -0.119,-0.113 -0.266,-0.238 -0.439,-0.375 -0.173,-0.137 -0.363,-0.264 -0.568,-0.377 -0.215,-0.121 -0.461,-0.221 -0.732,-0.303 -0.273,-0.082 -0.578,-0.123 -0.914,-0.123 -0.764,0 -1.354,0.264 -1.771,0.795 -0.418,0.529 -0.627,1.24 -0.627,2.137 0,0.957 0.223,1.674 0.67,2.143 0.447,0.47 1.039,0.707 1.779,0.707 0.375,0 0.705,-0.045 0.99,-0.129 0.285,-0.082 0.529,-0.188 0.734,-0.305 0.199,-0.117 0.369,-0.238 0.512,-0.367 0.143,-0.125 0.266,-0.24 0.367,-0.342 h 0.385 v 2.551 c -0.172,0.072 -0.369,0.156 -0.594,0.256 -0.225,0.094 -0.453,0.172 -0.686,0.234 -0.291,0.08 -0.562,0.143 -0.816,0.184 -0.253,0.042 -0.589,0.065 -1.003,0.065 z"
   id="path45" />
				<path
   fill="#fffffe"
   d="m 60.076,44.881 v -4.783 c 0,-0.471 -0.01,-0.869 -0.025,-1.193 -0.018,-0.322 -0.068,-0.588 -0.154,-0.793 -0.086,-0.203 -0.219,-0.354 -0.398,-0.447 -0.179,-0.093 -0.432,-0.141 -0.758,-0.141 -0.227,0 -0.453,0.051 -0.674,0.146 -0.223,0.102 -0.467,0.244 -0.729,0.426 v 6.785 h -2.984 v -4.783 c 0,-0.465 -0.01,-0.861 -0.029,-1.189 -0.021,-0.326 -0.072,-0.592 -0.158,-0.797 -0.086,-0.203 -0.219,-0.354 -0.398,-0.447 -0.179,-0.093 -0.43,-0.141 -0.748,-0.141 -0.244,0 -0.484,0.057 -0.719,0.17 -0.234,0.115 -0.463,0.248 -0.684,0.402 v 6.785 h -2.984 v -9.562 h 2.984 v 1.055 c 0.486,-0.416 0.947,-0.738 1.379,-0.971 0.432,-0.234 0.916,-0.352 1.455,-0.352 0.586,0 1.1,0.141 1.541,0.418 0.443,0.279 0.781,0.693 1.014,1.244 0.574,-0.533 1.115,-0.943 1.623,-1.23 0.508,-0.287 1.023,-0.432 1.545,-0.432 0.443,0 0.84,0.072 1.191,0.215 0.354,0.143 0.65,0.354 0.895,0.639 0.268,0.307 0.467,0.67 0.6,1.094 0.135,0.424 0.201,0.977 0.201,1.656 v 6.227 z"
   id="path46" />
			</g>
		</g>
	</g>
</svg>
